<?xml version="1.0" encoding="utf-8"?>
<!-- Generator: Adobe Illustrator 26.3.1, SVG Export Plug-In . SVG Version: 6.00 Build 0)  -->
<!DOCTYPE svg PUBLIC "-//W3C//DTD SVG 1.1//EN" "http://www.w3.org/Graphics/SVG/1.1/DTD/svg11.dtd" [
	<!ENTITY ns_extend "http://ns.adobe.com/Extensibility/1.0/">
	<!ENTITY ns_ai "http://ns.adobe.com/AdobeIllustrator/10.0/">
	<!ENTITY ns_graphs "http://ns.adobe.com/Graphs/1.0/">
	<!ENTITY ns_vars "http://ns.adobe.com/Variables/1.0/">
	<!ENTITY ns_imrep "http://ns.adobe.com/ImageReplacement/1.0/">
	<!ENTITY ns_sfw "http://ns.adobe.com/SaveForWeb/1.0/">
	<!ENTITY ns_custom "http://ns.adobe.com/GenericCustomNamespace/1.0/">
	<!ENTITY ns_adobe_xpath "http://ns.adobe.com/XPath/1.0/">
]>
<svg version="1.1" id="Layer_1" xmlns:x="&ns_extend;" xmlns:i="&ns_ai;" xmlns:graph="&ns_graphs;"
	 xmlns="http://www.w3.org/2000/svg" xmlns:xlink="http://www.w3.org/1999/xlink" x="0px" y="0px" viewBox="0 0 469.7 149.3"
	 style="enable-background:new 0 0 469.7 149.3;" xml:space="preserve">
<style type="text/css">
	.st0{fill:#FFFFFF;}
</style>
<metadata>
	<sfw  xmlns="&ns_sfw;">
		<slices></slices>
		<sliceSourceBounds  bottomLeftOrigin="true" height="149.3" width="469.7" x="0" y="346.3"></sliceSourceBounds>
	</sfw>
</metadata>
<g>
	<path class="st0" d="M0,125.7l77.2-76.8V0H0V125.7z M61.9,8.6c4.7,0,8.4,3.8,8.4,8.4c0,4.6-3.8,8.4-8.4,8.4c-4.7,0-8.4-3.8-8.4-8.4
		C53.5,12.4,57.2,8.6,61.9,8.6z"/>
	<path class="st0" d="M91.8,145.3h53.3V0H91.8V145.3z M106.6,35.1c4.7,0,8.4,3.8,8.4,8.4c0,4.7-3.8,8.4-8.4,8.4
		c-4.7,0-8.4-3.8-8.4-8.4C98.1,38.8,101.9,35.1,106.6,35.1z"/>
	<path class="st0" d="M77.2,145.3V68.5L0,145.3H77.2z M61.9,99.1c4.7,0,8.4,3.8,8.4,8.4c0,4.6-3.8,8.4-8.4,8.4
		c-4.7,0-8.4-3.8-8.4-8.4C53.5,102.9,57.2,99.1,61.9,99.1z"/>
	<polygon class="st0" points="167.2,17.4 186.2,17.4 186.2,32.9 189.2,32.9 189.2,0.9 186.2,0.9 186.2,14.8 167.2,14.8 167.2,0.9 
		164.1,0.9 164.1,32.9 167.2,32.9 	"/>
	<path class="st0" d="M198.7,28.1c1.3,1.5,2.8,2.7,4.7,3.5c1.9,0.9,4.1,1.3,6.6,1.3c2.5,0,4.7-0.4,6.6-1.3c1.9-0.9,3.5-2.1,4.7-3.5
		c1.3-1.5,2.2-3.2,2.8-5.1c0.6-1.9,0.9-4,0.9-6c0-2.1-0.3-4.1-0.9-6c-0.6-1.9-1.6-3.6-2.8-5.1c-1.3-1.5-2.8-2.7-4.7-3.5
		c-1.9-0.9-4.1-1.3-6.6-1.3c-2.5,0-4.7,0.4-6.6,1.3c-1.9,0.9-3.5,2.1-4.7,3.5c-1.3,1.5-2.2,3.2-2.8,5.1c-0.6,1.9-0.9,4-0.9,6
		c0,2.1,0.3,4.1,0.9,6C196.5,24.9,197.4,26.6,198.7,28.1z M198.6,12c0.5-1.6,1.2-3,2.2-4.3c1-1.3,2.2-2.3,3.7-3.1
		c1.5-0.8,3.3-1.2,5.5-1.2c2.1,0,3.9,0.4,5.4,1.2c1.5,0.8,2.8,1.8,3.7,3.1c1,1.3,1.7,2.7,2.2,4.3c0.5,1.6,0.7,3.2,0.7,4.9
		c0,1.7-0.2,3.3-0.7,4.9c-0.5,1.6-1.2,3-2.2,4.3c-1,1.3-2.2,2.3-3.7,3.1c-1.5,0.8-3.3,1.2-5.4,1.2c-2.1,0-3.9-0.4-5.5-1.2
		c-1.5-0.8-2.8-1.8-3.7-3.1c-1-1.3-1.7-2.7-2.2-4.3c-0.5-1.6-0.7-3.2-0.7-4.9C197.9,15.3,198.2,13.7,198.6,12z"/>
	<path class="st0" d="M254.6,20.1c-0.1,1.4-0.5,2.8-1,4c-0.5,1.2-1.2,2.3-2.1,3.3c-0.9,0.9-1.9,1.7-3.1,2.2c-1.2,0.5-2.5,0.8-4,0.8
		c-2.1,0-3.9-0.4-5.5-1.2c-1.5-0.8-2.8-1.8-3.7-3.1c-1-1.3-1.7-2.7-2.2-4.3c-0.5-1.6-0.7-3.2-0.7-4.9c0-1.7,0.2-3.3,0.7-4.9
		c0.5-1.6,1.2-3,2.2-4.3c1-1.3,2.2-2.3,3.7-3.1c1.5-0.8,3.3-1.2,5.5-1.2c1.2,0,2.3,0.2,3.3,0.5c1.1,0.3,2,0.8,2.9,1.5
		c0.9,0.7,1.6,1.5,2.2,2.4c0.6,1,1.1,2.1,1.3,3.3v0h3.1c-0.2-1.7-0.7-3.2-1.5-4.4c-0.8-1.3-1.8-2.4-3-3.3c-1.2-0.9-2.5-1.5-3.9-2
		c-1.4-0.4-2.9-0.7-4.5-0.7c-2.5,0-4.7,0.4-6.6,1.3c-1.9,0.9-3.5,2.1-4.7,3.5c-1.3,1.5-2.2,3.2-2.8,5.1c-0.6,1.9-0.9,4-0.9,6
		s0.3,4.1,0.9,6c0.6,1.9,1.6,3.6,2.8,5.1c1.3,1.5,2.8,2.7,4.7,3.5c1.9,0.9,4.1,1.3,6.6,1.3c1.9,0,3.6-0.3,5.1-0.9
		c1.5-0.6,2.9-1.5,4-2.6c1.1-1.1,2.1-2.5,2.8-4.1c0.7-1.6,1.2-3.4,1.4-5.3H254.6z"/>
	<polygon class="st0" points="288.3,32.9 288.3,0.9 285.2,0.9 285.2,14.8 266.2,14.8 266.2,0.9 263.2,0.9 263.2,32.9 266.2,32.9 
		266.2,17.4 285.2,17.4 285.2,32.9 	"/>
	<path class="st0" d="M297.4,30.3c1.1,0.9,2.5,1.6,4.1,2c1.6,0.4,3.4,0.6,5.2,0.6c1.9,0,3.5-0.2,4.8-0.5c1.3-0.3,2.5-0.8,3.4-1.3
		c0.9-0.5,1.6-1.1,2.2-1.8c0.5-0.7,0.9-1.3,1.2-2c0.3-0.6,0.5-1.3,0.5-1.8c0.1-0.6,0.1-1,0.1-1.4c0-1.3-0.2-2.3-0.6-3.2
		c-0.4-0.9-1-1.6-1.8-2.3c-0.8-0.6-1.6-1.1-2.6-1.5c-1-0.4-2.1-0.8-3.2-1.1l-7.8-1.8c-0.7-0.1-1.3-0.3-1.9-0.6
		c-0.6-0.2-1.1-0.5-1.5-0.9c-0.4-0.4-0.8-0.8-1.1-1.3c-0.3-0.5-0.4-1.2-0.4-1.9c0-1.1,0.2-2.1,0.7-2.9c0.4-0.8,1-1.4,1.8-1.9
		c0.7-0.5,1.6-0.8,2.6-1c1-0.2,2-0.3,3-0.3c1.1,0,2.2,0.2,3.3,0.5c1,0.3,2,0.8,2.8,1.4c0.8,0.6,1.4,1.4,1.9,2.3
		c0.5,0.9,0.7,2,0.8,3.2h3.1c0-1.6-0.3-3.1-0.9-4.3s-1.5-2.3-2.6-3.1c-1.1-0.8-2.4-1.5-3.8-1.9c-1.4-0.4-2.9-0.6-4.5-0.6
		c-2.2,0-4.1,0.3-5.5,0.9c-1.4,0.6-2.6,1.4-3.4,2.3c-0.8,0.9-1.4,1.8-1.7,2.8c-0.3,1-0.4,1.9-0.4,2.6c0,1.2,0.2,2.2,0.6,3
		c0.4,0.8,0.9,1.5,1.6,2.1c0.7,0.6,1.4,1,2.3,1.4c0.9,0.3,1.8,0.6,2.7,0.9l7.1,1.7c0.7,0.2,1.5,0.4,2.3,0.7c0.8,0.3,1.5,0.6,2.1,1.1
		c0.6,0.4,1.2,1,1.6,1.6c0.4,0.6,0.6,1.4,0.6,2.2c0,1.1-0.3,2.1-0.9,2.9c-0.6,0.8-1.3,1.4-2.1,1.9c-0.9,0.5-1.8,0.9-2.8,1.1
		c-1,0.2-1.9,0.3-2.7,0.3c-1.5,0-2.8-0.1-4.1-0.4s-2.4-0.8-3.3-1.4c-0.9-0.7-1.7-1.5-2.2-2.6c-0.5-1.1-0.8-2.5-0.8-4.1v0H294
		c-0.1,1.9,0.2,3.6,0.8,5C295.4,28.2,296.2,29.4,297.4,30.3z"/>
	<path class="st0" d="M327,28.1c1.3,1.5,2.8,2.7,4.7,3.5c1.9,0.9,4.1,1.3,6.6,1.3c1.9,0,3.6-0.3,5.1-0.9c1.5-0.6,2.9-1.5,4-2.6
		c1.1-1.1,2.1-2.5,2.8-4.1c0.7-1.6,1.2-3.4,1.4-5.3h-3c-0.2,1.4-0.5,2.8-1,4c-0.5,1.2-1.2,2.3-2.1,3.3c-0.9,0.9-1.9,1.7-3.1,2.2
		c-1.2,0.5-2.6,0.8-4,0.8c-2.1,0-3.9-0.4-5.5-1.2c-1.5-0.8-2.8-1.8-3.7-3.1c-1-1.3-1.7-2.7-2.2-4.3c-0.5-1.6-0.7-3.2-0.7-4.9
		c0-1.7,0.2-3.3,0.7-4.9c0.5-1.6,1.2-3,2.2-4.3c1-1.3,2.2-2.3,3.7-3.1c1.5-0.8,3.3-1.2,5.5-1.2c1.2,0,2.3,0.2,3.3,0.5
		c1.1,0.3,2,0.8,2.9,1.5c0.9,0.7,1.6,1.5,2.2,2.4c0.6,1,1.1,2.1,1.3,3.3v0h3.1c-0.2-1.7-0.7-3.2-1.5-4.4c-0.8-1.3-1.8-2.4-3-3.3
		c-1.2-0.9-2.5-1.5-3.9-2c-1.4-0.4-2.9-0.7-4.5-0.7c-2.5,0-4.7,0.4-6.6,1.3c-1.9,0.9-3.5,2.1-4.7,3.5c-1.3,1.5-2.2,3.2-2.8,5.1
		c-0.6,1.9-0.9,4-0.9,6s0.3,4.1,0.9,6C324.8,24.9,325.7,26.6,327,28.1z"/>
	<polygon class="st0" points="360.3,17.4 379.3,17.4 379.3,32.9 382.3,32.9 382.3,0.9 379.3,0.9 379.3,14.8 360.3,14.8 360.3,0.9 
		357.2,0.9 357.2,32.9 360.3,32.9 	"/>
	<path class="st0" d="M411.2,20.3c0,1.8-0.2,3.4-0.6,4.6s-1,2.3-1.8,3.1c-0.8,0.8-1.8,1.4-3,1.8c-1.2,0.4-2.5,0.5-4,0.5
		c-1.5,0-2.8-0.2-3.9-0.5c-1.2-0.4-2.2-0.9-3-1.8c-0.8-0.8-1.4-1.8-1.8-3.1c-0.4-1.3-0.6-2.8-0.6-4.6V0.9h-3V21
		c0,1.6,0.2,3.1,0.7,4.6c0.5,1.4,1.2,2.7,2.2,3.8c1,1.1,2.3,1.9,3.9,2.6c1.6,0.6,3.5,1,5.7,1c2.2,0,4.1-0.3,5.7-1
		c1.6-0.6,2.9-1.5,3.9-2.6c1-1.1,1.7-2.4,2.2-3.8c0.5-1.4,0.7-3,0.7-4.6V0.9h-3.1V20.3z"/>
	<polygon class="st0" points="442.2,30.3 424.3,30.3 424.3,0.9 421.2,0.9 421.2,32.9 442.2,32.9 	"/>
	<polygon class="st0" points="468.5,30.3 449.2,30.3 449.2,17.7 467.1,17.7 467.1,15.1 449.2,15.1 449.2,3.5 468.3,3.5 468.3,0.9 
		446.2,0.9 446.2,32.9 468.5,32.9 	"/>
	<polygon class="st0" points="176.3,58.1 190.7,45.2 186.5,45.2 167.9,62 167.9,45.2 164.9,45.2 164.9,76.6 167.9,76.6 167.9,65.6 
		174.1,60 187.4,76.6 191.3,76.6 	"/>
	<path class="st0" d="M219.8,71.8c1.3-1.4,2.2-3.1,2.8-5c0.6-1.9,0.9-3.9,0.9-5.9s-0.3-4-0.9-5.9c-0.6-1.9-1.6-3.6-2.8-5
		c-1.3-1.4-2.8-2.6-4.7-3.5c-1.9-0.9-4.1-1.3-6.6-1.3s-4.7,0.4-6.6,1.3c-1.9,0.9-3.5,2-4.7,3.5c-1.3,1.4-2.2,3.1-2.8,5
		c-0.6,1.9-0.9,3.9-0.9,5.9s0.3,4,0.9,5.9c0.6,1.9,1.6,3.6,2.8,5c1.3,1.4,2.8,2.6,4.7,3.5c1.9,0.9,4.1,1.3,6.6,1.3s4.7-0.4,6.6-1.3
		C216.9,74.4,218.5,73.3,219.8,71.8z M213.9,72.9c-1.5,0.8-3.3,1.1-5.4,1.1c-2.1,0-3.9-0.4-5.5-1.1c-1.5-0.8-2.8-1.8-3.7-3
		s-1.7-2.6-2.2-4.2c-0.5-1.6-0.7-3.2-0.7-4.8c0-1.6,0.2-3.2,0.7-4.8c0.5-1.6,1.2-3,2.2-4.2c1-1.2,2.2-2.2,3.7-3
		c1.5-0.8,3.3-1.1,5.5-1.1c2.1,0,3.9,0.4,5.4,1.1c1.5,0.8,2.8,1.8,3.7,3c1,1.2,1.7,2.6,2.2,4.2c0.5,1.6,0.7,3.2,0.7,4.8
		c0,1.6-0.2,3.3-0.7,4.8c-0.5,1.6-1.2,3-2.2,4.2S215.4,72.1,213.9,72.9z"/>
	<path class="st0" d="M249.9,59c0.7-0.4,1.3-1,1.7-1.6c0.5-0.6,0.9-1.3,1.1-2.1c0.3-0.8,0.4-1.6,0.4-2.4c0-1.5-0.3-2.7-0.9-3.7
		c-0.6-1-1.3-1.8-2.3-2.4c-0.9-0.6-2-1-3.3-1.3c-1.2-0.2-2.5-0.4-3.9-0.4h-13.5h0v31.4h13.5c2.6,0,4.7-0.3,6.2-1
		c1.5-0.6,2.7-1.4,3.5-2.4c0.8-0.9,1.3-1.9,1.5-2.9c0.2-1,0.3-1.9,0.3-2.7c0-2.1-0.6-3.8-1.8-5.2c-1.2-1.4-2.9-2.2-4.9-2.5v-0.1
		C248.4,59.7,249.2,59.4,249.9,59z M249.1,63c1.5,1,2.2,2.5,2.2,4.5c0,1.3-0.2,2.3-0.7,3.1c-0.4,0.8-1.1,1.5-1.8,2
		c-0.8,0.5-1.7,0.8-2.7,1c-1,0.2-2.1,0.3-3.2,0.3h-10.5V61.5h10.5C245.6,61.5,247.7,62,249.1,63z M246.1,58.5
		c-0.9,0.3-2,0.4-3.2,0.4h-10.5V47.7h10.5c4.8,0,7.2,2,7.2,5.9c0,0.7-0.1,1.4-0.4,2.1c-0.3,0.6-0.7,1.2-1.3,1.7S247,58.2,246.1,58.5
		z"/>
	<polygon class="st0" points="281.4,74 263.4,74 263.4,45.2 260.4,45.2 260.4,76.6 281.4,76.6 	"/>
	<polygon class="st0" points="307.9,74 288.6,74 288.6,61.6 306.5,61.6 306.5,59.1 288.6,59.1 288.6,47.7 307.7,47.7 307.7,45.2 
		285.6,45.2 285.6,76.6 307.9,76.6 	"/>
	<polygon class="st0" points="338.5,76.6 338.5,45.2 335.4,45.2 335.4,71.7 335.3,71.7 316.7,45.2 313.3,45.2 313.3,76.6 
		316.3,76.6 316.3,50 316.4,50 335.1,76.6 	"/>
	<polygon class="st0" points="367.9,74 346.4,74 367.5,47.8 367.5,45.2 344.4,45.2 344.4,47.7 364.1,47.7 343,73.9 343,76.6 
		367.9,76.6 	"/>
	<path class="st0" d="M165.2,93.6v9.1c0,2.7,1.3,4.1,3.8,4.1c1.2,0,2.2-0.4,2.9-1.1c0.6-0.7,0.9-1.7,0.9-3v-9.1h-1.6v9.1
		c0,0.9-0.2,1.6-0.5,2.1c-0.3,0.5-0.9,0.7-1.7,0.7c-0.8,0-1.3-0.2-1.7-0.7c-0.3-0.4-0.5-1.1-0.5-2.1v-9.1H165.2z"/>
	<polygon class="st0" points="183.6,104.4 179.3,93.6 177.3,93.6 177.3,106.5 178.8,106.5 178.8,96 183,106.5 185.2,106.5 
		185.2,93.6 183.6,93.6 	"/>
	<rect x="189.8" y="93.6" class="st0" width="1.6" height="12.9"/>
	<polygon class="st0" points="203.3,93.6 201.7,93.6 199.2,104.7 199.1,104.7 196.6,93.6 194.9,93.6 198.1,106.5 200.1,106.5 	"/>
	<polygon class="st0" points="213.5,95 213.5,93.6 206.9,93.6 206.9,106.5 213.8,106.5 213.8,105.1 208.5,105.1 208.5,100.5 
		213.3,100.5 213.3,99 208.5,99 208.5,95 	"/>
	<path class="st0" d="M222.7,101c0.4,0.3,0.6,0.8,0.7,1.6l0.1,2c0.1,1,0.2,1.6,0.4,1.9h1.9c-0.4-0.3-0.6-0.9-0.7-2l-0.1-2.2
		c0-0.6-0.2-1-0.5-1.5c-0.3-0.4-0.8-0.6-1.3-0.7v0c1.3-0.3,2-1.4,2-3.2c0-1-0.3-1.8-0.9-2.4c-0.6-0.6-1.4-0.9-2.4-0.9h-4.2v12.9h1.6
		v-5.7h2.1C222.1,100.7,222.5,100.8,222.7,101z M219.4,99.4v-4.5v0h1.9c0.7,0,1.3,0.2,1.7,0.6c0.4,0.4,0.6,0.9,0.6,1.5
		c0,1.1-0.3,1.8-1,2.2c-0.4,0.2-0.9,0.3-1.7,0.3H219.4z"/>
	<path class="st0" d="M235.5,100c-1-0.4-2-0.7-2.9-1.1c-1-0.5-1.6-1.2-1.6-2.2c0-1.4,0.7-2.1,2.1-2.1c1.3,0,2,0.8,2,2.3h1.6
		c0-2.4-1.2-3.6-3.6-3.6c-1.4,0-2.5,0.4-3.1,1.3c-0.4,0.6-0.7,1.3-0.7,2.2c0,1.3,0.5,2.3,1.6,2.9c1,0.4,2,0.8,2.9,1.1
		c1,0.5,1.6,1.2,1.6,2.2c0,0.7-0.2,1.2-0.6,1.6c-0.4,0.4-1,0.6-1.6,0.6c-1,0-1.7-0.3-2.1-1c-0.2-0.4-0.3-1.1-0.3-2h-1.6
		c0,1.5,0.3,2.5,0.8,3.2c0.6,0.7,1.6,1.1,3.1,1.1c1.1,0,2-0.3,2.7-0.8c0.9-0.7,1.3-1.7,1.3-3C237.1,101.6,236.6,100.6,235.5,100z"/>
	<rect x="241.2" y="93.6" class="st0" width="1.6" height="12.9"/>
	<polygon class="st0" points="246.5,95 249.7,95 249.7,106.5 251.3,106.5 251.3,95 254.6,95 254.6,93.6 246.5,93.6 	"/>
	<polygon class="st0" points="261.4,99.6 259,93.6 257.2,93.6 260.6,101.4 260.6,106.5 262.2,106.5 262.2,101.4 265.6,93.6 
		264,93.6 	"/>
	<path class="st0" d="M280,93.3c-1.6,0-2.8,0.7-3.4,2.1c-0.5,1.1-0.7,2.6-0.7,4.6s0.2,3.5,0.7,4.6c0.7,1.4,1.8,2.1,3.4,2.1
		c1.6,0,2.7-0.7,3.4-2.1c0.5-1.1,0.7-2.6,0.7-4.6s-0.2-3.5-0.7-4.6C282.7,94.1,281.6,93.3,280,93.3z M282.1,103.8
		c-0.4,1.1-1.1,1.6-2.1,1.6s-1.7-0.5-2.1-1.6c-0.3-0.8-0.4-2.1-0.4-3.8c0-1.8,0.1-3,0.4-3.8c0.4-1.1,1.1-1.6,2.1-1.6
		s1.7,0.5,2.1,1.6c0.3,0.8,0.4,2.1,0.4,3.8C282.5,101.8,282.3,103.1,282.1,103.8z"/>
	<polygon class="st0" points="295.2,95 295.2,93.6 288.6,93.6 288.6,106.5 290.1,106.5 290.1,100.5 294.9,100.5 294.9,99 290.1,99 
		290.1,95 	"/>
	<path class="st0" d="M309.9,93.6h-2.1l-3.7,12.9h1.7l1-3.5h4.1l0.9,3.5h1.7L309.9,93.6z M307,101.6l1.8-6.2h0l1.6,6.2H307z"/>
	<path class="st0" d="M320.1,93.6h-3.3v12.9v0h1.6V101h2c1.1,0,2-0.3,2.7-1c0.7-0.7,1-1.6,1-2.8c0-1.6-0.5-2.7-1.6-3.2
		C322,93.8,321.1,93.6,320.1,93.6z M321.8,99.1c-0.4,0.4-0.9,0.6-1.5,0.6h-1.9v-4.8h1.8c1.5,0,2.2,0.8,2.2,2.3
		C322.4,98,322.2,98.7,321.8,99.1z"/>
	<path class="st0" d="M335.3,97.3c0-1.6-0.5-2.7-1.6-3.2c-0.6-0.3-1.4-0.5-2.4-0.5H328v12.9v0h1.6V101h2c1.1,0,2-0.3,2.7-1
		C335,99.4,335.3,98.5,335.3,97.3z M333,99.1c-0.4,0.4-0.9,0.6-1.5,0.6h-1.9v-4.8h1.8c1.5,0,2.2,0.8,2.2,2.3
		C333.6,98,333.4,98.7,333,99.1z"/>
	<polygon class="st0" points="339.2,93.6 339.2,106.5 346.1,106.5 346.1,105.1 340.8,105.1 340.8,93.6 	"/>
	<rect x="349.8" y="93.6" class="st0" width="1.6" height="12.9"/>
	<polygon class="st0" points="362.7,95 362.7,93.6 356,93.6 356,106.5 362.9,106.5 362.9,105.1 357.6,105.1 357.6,100.5 
		362.4,100.5 362.4,99 357.6,99 357.6,95 	"/>
	<path class="st0" d="M375,100c0-2.1-0.3-3.6-0.8-4.5c-0.7-1.3-1.9-1.9-3.8-1.9H367v12.9h3.6C373.5,106.5,375,104.3,375,100z
		 M368.6,105.2V94.9h1.7c1.3,0,2.2,0.5,2.6,1.6c0.3,0.7,0.4,1.9,0.4,3.5c0,1.5-0.2,2.6-0.5,3.4c-0.5,1.1-1.3,1.7-2.6,1.7H368.6z"/>
	<path class="st0" d="M393.4,103.2c0-1.8-1-2.8-3.1-3.6c-1.7-0.6-2.4-1.2-2.4-2.3c0-0.8,0.6-1.8,2.3-1.8c1.1,0,1.9,0.3,2.3,0.6
		l0.4-1.3c-0.5-0.3-1.4-0.6-2.7-0.6c-2.4,0-3.9,1.4-3.9,3.3c0,1.7,1.2,2.7,3.2,3.5c1.6,0.6,2.3,1.3,2.3,2.4c0,1.2-0.9,2.1-2.5,2.1
		c-1.1,0-2.1-0.3-2.8-0.8l-0.4,1.3c0.6,0.4,1.9,0.8,3.1,0.8C392.1,106.7,393.4,105,393.4,103.2z"/>
	<path class="st0" d="M401.9,94.6c1.4,0,2.1,0.9,2.1,2.7h1.7c-0.1-2.7-1.3-4-3.8-4c-1.6,0-2.8,0.7-3.4,2.1c-0.5,1.1-0.7,2.6-0.7,4.6
		c0,2,0.2,3.5,0.7,4.6c0.7,1.4,1.8,2.1,3.4,2.1c2.4,0,3.7-1.6,3.9-4.7h-1.7c0,1-0.2,1.8-0.4,2.3c-0.4,0.7-1,1.1-1.8,1.1
		c-1,0-1.7-0.5-2.1-1.6c-0.3-0.8-0.4-2.1-0.4-3.8c0-1.8,0.1-3,0.4-3.8C400.2,95.2,400.9,94.6,401.9,94.6z"/>
	<rect x="409.8" y="93.6" class="st0" width="1.6" height="12.9"/>
	<polygon class="st0" points="422.9,105.1 417.6,105.1 417.6,100.5 422.4,100.5 422.4,99 417.6,99 417.6,95 422.7,95 422.7,93.6 
		416,93.6 416,106.5 422.9,106.5 	"/>
	<polygon class="st0" points="433.2,104.4 429,93.6 426.9,93.6 426.9,106.5 428.5,106.5 428.5,96 432.6,106.5 434.8,106.5 
		434.8,93.6 433.2,93.6 	"/>
	<path class="st0" d="M440,95.5c-0.5,1.1-0.7,2.6-0.7,4.6c0,2,0.2,3.5,0.7,4.6c0.7,1.4,1.8,2.1,3.4,2.1c2.4,0,3.7-1.6,3.9-4.7h-1.7
		c0,1-0.2,1.8-0.4,2.3c-0.4,0.7-1,1.1-1.8,1.1c-1,0-1.7-0.5-2.1-1.6c-0.3-0.8-0.4-2.1-0.4-3.8c0-1.8,0.1-3,0.4-3.8
		c0.4-1.1,1.1-1.6,2.1-1.6c1.4,0,2.1,0.9,2.1,2.7h1.7c-0.1-2.7-1.3-4-3.8-4C441.8,93.3,440.6,94.1,440,95.5z"/>
	<polygon class="st0" points="458.2,105.1 452.9,105.1 452.9,100.5 457.7,100.5 457.7,99 452.9,99 452.9,95 458,95 458,93.6 
		451.3,93.6 451.3,106.5 458.2,106.5 	"/>
	<path class="st0" d="M465.7,94.6c1.3,0,2,0.8,2,2.3h1.6c0-2.4-1.2-3.6-3.6-3.6c-1.4,0-2.5,0.4-3.1,1.3c-0.4,0.6-0.7,1.3-0.7,2.2
		c0,1.3,0.5,2.3,1.6,2.9c1,0.4,2,0.8,2.9,1.1c1,0.5,1.6,1.2,1.6,2.2c0,0.7-0.2,1.2-0.6,1.6s-1,0.6-1.6,0.6c-1,0-1.7-0.3-2.1-1
		c-0.2-0.4-0.3-1.1-0.3-2h-1.6c0,1.5,0.3,2.5,0.8,3.2c0.6,0.7,1.6,1.1,3.1,1.1c1.1,0,2-0.3,2.7-0.8c0.9-0.7,1.3-1.7,1.3-3
		c0-1.3-0.5-2.3-1.6-2.9c-1-0.4-2-0.7-2.9-1.1c-1-0.5-1.6-1.2-1.6-2.2C463.5,95.3,464.2,94.6,465.7,94.6z"/>
	<path class="st0" d="M214.3,142.2c0-0.4-0.1-0.8-0.1-1.3c0-0.4,0-0.8-0.1-1.1c0-0.5-0.1-1-0.2-1.4c-0.1-0.5-0.3-0.9-0.5-1.3
		c-0.2-0.4-0.5-0.8-0.8-1.1c-0.3-0.3-0.8-0.5-1.3-0.7v-0.1c1.1-0.4,1.9-1.1,2.4-1.9c0.5-0.8,0.7-1.8,0.7-2.9c0-0.7-0.1-1.4-0.4-2
		c-0.3-0.6-0.6-1.2-1.1-1.7c-0.5-0.5-1.1-0.9-1.8-1.1s-1.5-0.4-2.4-0.4h-10.5v19.2h4.3v-7.5h4.3c1.1,0,1.8,0.2,2.3,0.7
		c0.5,0.5,0.8,1.2,0.9,2.2c0.1,0.4,0.1,0.8,0.1,1.2c0,0.4,0.1,0.8,0.1,1.2c0,0.4,0.1,0.8,0.2,1.2c0.1,0.4,0.2,0.7,0.3,1h4.3
		c-0.2-0.3-0.4-0.6-0.5-1C214.4,143,214.3,142.6,214.3,142.2z M209.3,133.2c-0.5,0.4-1.2,0.6-2.2,0.6h-4.7v-5.4h4.7
		c1,0,1.7,0.2,2.2,0.6c0.5,0.4,0.8,1.1,0.8,2C210.1,132.1,209.8,132.8,209.3,133.2z"/>
	<path class="st0" d="M233.2,131.7c-0.4-0.5-0.9-0.9-1.6-1.2s-1.5-0.4-2.6-0.4c-0.7,0-1.5,0.2-2.2,0.6c-0.8,0.4-1.4,1-1.9,1.7h-0.1
		v-7.2h-3.9h0v19.2h3.9v-7.3c0-1.4,0.2-2.4,0.7-3.1c0.5-0.6,1.2-0.9,2.3-0.9c0.9,0,1.6,0.3,1.9,0.8c0.4,0.6,0.6,1.4,0.6,2.6v7.9h3.9
		v-8.6c0-0.9-0.1-1.6-0.2-2.4C233.8,132.8,233.5,132.2,233.2,131.7z"/>
	<path class="st0" d="M252.5,132.6c-0.6-0.8-1.3-1.4-2.2-1.8c-0.9-0.5-1.9-0.7-3.1-0.7c-1.1,0-2.1,0.2-2.9,0.6
		c-0.9,0.4-1.6,0.9-2.3,1.5c-0.6,0.7-1.1,1.4-1.5,2.3c-0.3,0.9-0.5,1.9-0.5,2.9c0,1.1,0.2,2.1,0.5,3c0.3,0.9,0.8,1.7,1.4,2.3
		c0.6,0.6,1.4,1.1,2.3,1.5c0.9,0.4,1.9,0.5,3,0.5c1.6,0,3-0.4,4.1-1.1c1.1-0.7,2-1.9,2.5-3.6h-3.4c-0.1,0.4-0.5,0.8-1,1.2
		c-0.6,0.4-1.2,0.6-2,0.6c-1.1,0-1.9-0.3-2.5-0.8c-0.6-0.6-0.9-1.5-1-2.7v0H254c0.1-1.1,0-2.1-0.3-3.1
		C253.5,134.3,253.1,133.4,252.5,132.6z M250.2,136h-6.3c0-0.3,0.1-0.6,0.2-0.9c0.1-0.3,0.3-0.7,0.5-1c0.2-0.3,0.6-0.6,1-0.8
		c0.4-0.2,0.9-0.3,1.5-0.3c0.9,0,1.7,0.3,2.1,0.8C249.7,134.2,250,135,250.2,136L250.2,136z"/>
	<rect x="260" y="130.5" class="st0" width="3.9" height="13.9"/>
	<rect x="260" y="125.2" class="st0" width="3.9" height="3.2"/>
	<path class="st0" d="M282.6,131.7c-0.4-0.5-0.9-0.9-1.6-1.2s-1.5-0.4-2.6-0.4c-0.8,0-1.6,0.2-2.4,0.6c-0.8,0.4-1.4,1-1.9,1.7h-0.1
		v-1.9h-3.7v13.9h3.9v-7.3c0-1.4,0.2-2.4,0.7-3.1c0.5-0.6,1.2-0.9,2.3-0.9c0.9,0,1.6,0.3,1.9,0.8c0.4,0.6,0.6,1.4,0.6,2.6v7.9h3.9
		v-8.6c0-0.9-0.1-1.6-0.2-2.4C283.3,132.8,283,132.2,282.6,131.7z"/>
	<path class="st0" d="M295.9,125.2l-7.4,19.2h4.3l1.5-4.3h7.3l1.5,4.3h4.5l-7.3-19.2H295.9z M295.4,137l2.5-7.1h0.1l2.5,7.1H295.4z"
		/>
	<path class="st0" d="M324.6,131.7c-0.4-0.5-0.9-0.9-1.6-1.2c-0.7-0.3-1.5-0.4-2.6-0.4c-0.7,0-1.5,0.2-2.2,0.6
		c-0.8,0.4-1.4,1-1.9,1.7h-0.1v-7.2h-3.9v19.2h3.9v-7.3c0-1.4,0.2-2.4,0.7-3.1c0.5-0.6,1.2-0.9,2.3-0.9c0.9,0,1.6,0.3,1.9,0.8
		c0.4,0.6,0.6,1.4,0.6,2.6v7.9h3.9v-8.6c0-0.9-0.1-1.6-0.2-2.4C325.2,132.8,324.9,132.2,324.6,131.7z"/>
	<path class="st0" d="M338.9,130.3c-0.5,0.1-0.9,0.3-1.3,0.6c-0.4,0.3-0.8,0.6-1.1,0.9c-0.3,0.4-0.6,0.8-0.7,1.2h-0.1v-2.6h-3.7
		v13.9h3.9v-6.3c0-0.6,0.1-1.2,0.2-1.7c0.1-0.5,0.3-1,0.6-1.4c0.3-0.4,0.7-0.7,1.2-1c0.5-0.2,1.1-0.3,1.8-0.3c0.2,0,0.5,0,0.7,0
		c0.3,0,0.5,0.1,0.7,0.1v-3.6c-0.3-0.1-0.6-0.1-0.8-0.1C339.8,130.1,339.4,130.2,338.9,130.3z"/>
	<path class="st0" d="M358.4,140.1c-0.7,0.8-1.8,1.2-3.1,1.2c-1,0-1.8-0.2-2.5-0.6c-0.7-0.4-1.2-0.9-1.6-1.5
		c-0.4-0.6-0.7-1.3-0.9-2.1c-0.2-0.8-0.3-1.5-0.3-2.4c0-0.8,0.1-1.7,0.3-2.5c0.2-0.8,0.5-1.5,0.9-2.1c0.4-0.6,1-1.1,1.6-1.5
		c0.7-0.4,1.5-0.6,2.5-0.6c0.5,0,1,0.1,1.5,0.3c0.5,0.2,0.9,0.4,1.3,0.7c0.4,0.3,0.7,0.7,1,1.1c0.3,0.4,0.4,0.8,0.5,1.3v0h4.2
		c-0.1-1.1-0.4-2.1-0.9-3c-0.5-0.9-1.1-1.6-1.9-2.2s-1.6-1-2.6-1.3c-1-0.3-2-0.5-3-0.5c-1.5,0-2.9,0.3-4,0.8c-1.2,0.5-2.2,1.2-3,2.2
		c-0.8,0.9-1.5,2-1.9,3.2c-0.4,1.2-0.7,2.6-0.7,4c0,1.4,0.2,2.7,0.7,3.9c0.4,1.2,1.1,2.3,1.9,3.2c0.8,0.9,1.8,1.6,3,2.1
		c1.2,0.5,2.5,0.8,4,0.8c1.2,0,2.3-0.2,3.3-0.6c1-0.4,1.9-0.9,2.6-1.6c0.7-0.7,1.3-1.5,1.8-2.5c0.5-1,0.7-2.1,0.8-3.3h-4.2
		C359.6,138.3,359.2,139.3,358.4,140.1z"/>
	<polygon class="st0" points="369.8,134.8 369.8,134.8 369.8,134.8 	"/>
	<path class="st0" d="M382.6,141.3v-7.2c0-0.8-0.2-1.5-0.6-2c-0.4-0.5-0.9-0.9-1.5-1.2c-0.6-0.3-1.3-0.5-2-0.6
		c-0.7-0.1-1.5-0.1-2.2-0.1c-0.8,0-1.6,0.1-2.3,0.2c-0.8,0.2-1.5,0.4-2.1,0.8c-0.6,0.4-1.1,0.8-1.5,1.4c-0.4,0.6-0.6,1.3-0.7,2.2
		h3.9c0.1-0.8,0.3-1.3,0.8-1.6c0.4-0.3,1-0.5,1.8-0.5c0.3,0,0.7,0,1,0.1c0.3,0,0.6,0.1,0.8,0.3c0.2,0.1,0.4,0.3,0.5,0.6
		c0.1,0.2,0.2,0.6,0.2,1c0,0.4-0.1,0.7-0.4,0.9c-0.3,0.2-0.6,0.4-1,0.5c-0.4,0.1-0.9,0.2-1.5,0.2c-0.5,0.1-1.1,0.1-1.7,0.2
		c-0.6,0.1-1.2,0.2-1.8,0.4c-0.6,0.2-1.1,0.4-1.5,0.7c-0.5,0.3-0.8,0.7-1.1,1.2c-0.3,0.5-0.4,1.2-0.4,2c0,0.7,0.1,1.3,0.4,1.9
		c0.2,0.5,0.6,1,1,1.3c0.4,0.3,0.9,0.6,1.5,0.8c0.6,0.2,1.2,0.3,1.9,0.3c0.9,0,1.7-0.1,2.6-0.4c0.8-0.3,1.6-0.7,2.2-1.3
		c0,0.2,0,0.5,0.1,0.7c0,0.2,0.1,0.4,0.2,0.7h3.9c-0.2-0.3-0.3-0.7-0.4-1.3C382.6,142.5,382.6,141.9,382.6,141.3z M378.7,139
		c0,0.2,0,0.5-0.1,0.9c0,0.4-0.2,0.7-0.4,1.1c-0.2,0.3-0.5,0.7-0.9,0.9c-0.4,0.3-1,0.4-1.8,0.4c-0.3,0-0.6,0-0.9-0.1
		c-0.3-0.1-0.5-0.1-0.8-0.3c-0.2-0.1-0.4-0.3-0.5-0.5c-0.1-0.2-0.2-0.5-0.2-0.9c0-0.3,0.1-0.6,0.2-0.9c0.1-0.2,0.3-0.4,0.5-0.6
		c0.2-0.2,0.5-0.3,0.7-0.4c0.3-0.1,0.6-0.2,0.9-0.2c0.3-0.1,0.6-0.1,0.9-0.1c0.3,0,0.6-0.1,0.9-0.1c0.3-0.1,0.5-0.1,0.8-0.2
		c0.2-0.1,0.5-0.2,0.6-0.3V139z"/>
	<path class="st0" d="M409.4,131.2c-0.5-0.4-1-0.7-1.6-0.9c-0.6-0.2-1.3-0.3-2.1-0.3c-1,0-1.8,0.2-2.6,0.7c-0.7,0.5-1.3,1-1.7,1.6
		c-0.4-0.8-0.9-1.4-1.7-1.8c-0.7-0.3-1.6-0.5-2.4-0.5c-0.9,0-1.8,0.2-2.5,0.6c-0.7,0.4-1.3,1-1.8,1.7h-0.1v-1.9h-3.7v13.9h3.9v-8.1
		c0-0.7,0.1-1.2,0.3-1.7c0.2-0.4,0.4-0.7,0.7-1c0.3-0.2,0.6-0.4,0.9-0.5c0.3-0.1,0.5-0.1,0.7-0.1c0.6,0,1.1,0.1,1.4,0.3
		c0.3,0.2,0.5,0.5,0.7,0.8c0.1,0.3,0.2,0.7,0.2,1.1s0,0.8,0,1.2v7.8h3.9v-7.8c0-0.4,0-0.9,0.1-1.3c0.1-0.4,0.2-0.8,0.4-1.1
		c0.2-0.3,0.5-0.6,0.8-0.8c0.3-0.2,0.8-0.3,1.3-0.3c0.5,0,1,0.1,1.3,0.3c0.3,0.2,0.6,0.4,0.7,0.7c0.2,0.3,0.3,0.7,0.3,1.1
		c0,0.4,0.1,0.9,0.1,1.3v7.9h3.9v-9.3c0-0.9-0.1-1.7-0.4-2.3C410.2,132.1,409.8,131.6,409.4,131.2z"/>
	<path class="st0" d="M430.2,132.4c-0.5-0.7-1.2-1.2-2-1.6c-0.8-0.4-1.8-0.6-2.9-0.6c-0.9,0-1.7,0.2-2.4,0.5
		c-0.7,0.3-1.3,0.9-1.8,1.6h-0.1v-1.8h-3.7h0v18.8h3.9v-6.6h0.1c0.5,0.7,1.1,1.2,1.8,1.6c0.7,0.4,1.5,0.5,2.4,0.5
		c1,0,1.9-0.2,2.7-0.6c0.8-0.4,1.4-0.9,1.9-1.6c0.5-0.7,0.9-1.4,1.2-2.3c0.3-0.9,0.4-1.8,0.4-2.7c0-1-0.1-1.9-0.4-2.8
		S430.7,133.1,430.2,132.4z M427.7,139.1c-0.1,0.5-0.3,1-0.6,1.4c-0.3,0.4-0.6,0.7-1,1c-0.4,0.3-1,0.4-1.6,0.4s-1.2-0.1-1.6-0.4
		c-0.4-0.3-0.8-0.6-1-1c-0.3-0.4-0.5-0.9-0.6-1.4c-0.1-0.5-0.2-1.1-0.2-1.7c0-0.6,0.1-1.1,0.2-1.7c0.1-0.5,0.3-1,0.6-1.4
		c0.3-0.4,0.6-0.7,1-1c0.4-0.3,1-0.4,1.6-0.4c0.6,0,1.1,0.1,1.6,0.4c0.4,0.3,0.8,0.6,1.1,1c0.3,0.4,0.5,0.9,0.6,1.4
		c0.1,0.5,0.2,1.1,0.2,1.6C427.9,138.1,427.8,138.6,427.7,139.1z"/>
	<path class="st0" d="M446.9,137.8c0,1.4-0.2,2.4-0.7,3.1c-0.5,0.6-1.2,0.9-2.3,0.9c-0.9,0-1.6-0.3-1.9-0.8
		c-0.4-0.6-0.6-1.4-0.6-2.6v-7.9h-3.9v8.6c0,0.9,0.1,1.6,0.2,2.4c0.2,0.7,0.4,1.3,0.8,1.8c0.4,0.5,0.9,0.9,1.6,1.2
		c0.7,0.3,1.5,0.4,2.6,0.4c0.8,0,1.6-0.2,2.4-0.6c0.8-0.4,1.4-1,1.9-1.8h0.1v1.9h3.7v-13.9h-3.9V137.8z"/>
	<path class="st0" d="M469.3,138.3c-0.3-0.4-0.6-0.8-1-1.1c-0.4-0.3-0.9-0.5-1.4-0.7c-0.5-0.2-1.1-0.3-1.7-0.5
		c-0.5-0.1-1.1-0.2-1.6-0.3c-0.5-0.1-1-0.2-1.4-0.4c-0.4-0.1-0.7-0.3-1-0.5c-0.3-0.2-0.4-0.5-0.4-0.8c0-0.3,0.1-0.5,0.2-0.7
		c0.1-0.2,0.3-0.3,0.5-0.4c0.2-0.1,0.4-0.1,0.7-0.2c0.3,0,0.5,0,0.7,0c0.7,0,1.3,0.1,1.8,0.4c0.5,0.3,0.8,0.8,0.8,1.5h3.7
		c-0.1-0.9-0.3-1.6-0.7-2.1c-0.4-0.6-0.8-1-1.4-1.4c-0.6-0.3-1.2-0.6-1.9-0.7c-0.7-0.1-1.5-0.2-2.2-0.2c-0.8,0-1.5,0.1-2.2,0.2
		c-0.7,0.1-1.4,0.4-2,0.7c-0.6,0.3-1.1,0.8-1.4,1.4c-0.4,0.6-0.5,1.3-0.5,2.2c0,0.6,0.1,1.1,0.4,1.5c0.3,0.4,0.6,0.8,1,1.1
		s0.9,0.5,1.4,0.7c0.5,0.2,1.1,0.3,1.7,0.4c0.7,0.1,1.3,0.3,1.9,0.4c0.5,0.1,1,0.3,1.4,0.4c0.4,0.2,0.7,0.3,0.9,0.6
		c0.2,0.2,0.3,0.5,0.3,0.7c0,0.3-0.1,0.6-0.2,0.8c-0.2,0.2-0.4,0.4-0.6,0.5c-0.2,0.1-0.5,0.2-0.8,0.3c-0.3,0.1-0.6,0.1-0.9,0.1
		c-0.4,0-0.8,0-1.1-0.1c-0.4-0.1-0.7-0.2-0.9-0.4c-0.3-0.2-0.5-0.4-0.7-0.7c-0.2-0.3-0.3-0.7-0.3-1.1v0h-3.7c0,0.9,0.2,1.7,0.6,2.3
		c0.4,0.6,0.9,1.1,1.5,1.5c0.6,0.4,1.3,0.7,2.1,0.8c0.8,0.2,1.6,0.2,2.4,0.2c0.8,0,1.6-0.1,2.4-0.2c0.8-0.2,1.5-0.4,2.1-0.8
		c0.6-0.4,1.1-0.9,1.5-1.5c0.4-0.6,0.6-1.4,0.6-2.3C469.7,139.3,469.6,138.7,469.3,138.3z"/>
	<rect x="164.7" y="125.2" class="st0" width="19.2" height="19.2"/>
</g>
</svg>
